<svg width="24" height="20" viewBox="0 0 24 20" fill="none" xmlns="http://www.w3.org/2000/svg">
<path d="M18.8638 5.04464L17.8833 6.65179C19.5953 7.60417 20.8872 8.72024 21.7588 10C21.3541 10.5952 20.8405 11.183 20.2179 11.7634C19.5953 12.3438 18.5992 12.9688 17.2296 13.6384C15.8599 14.308 14.3813 14.6875 12.7938 14.7768L11.5798 16.6518H12C17.0428 16.6518 20.9961 14.5982 23.8599 10.4911C24.0467 10.1637 24.0467 9.83631 23.8599 9.50893C23.7665 9.33036 23.572 9.04018 23.2763 8.63839C22.9805 8.23661 22.4202 7.66369 21.5953 6.91964C20.7704 6.1756 19.8599 5.5506 18.8638 5.04464ZM14.8949 7.32143L15.7821 5.80357L16.7626 4.10714L18.7704 0.9375L17.0895 0L14.8016 3.61607C14.0856 3.4375 13.2451 3.34821 12.2802 3.34821H11.5798C6.75486 3.46726 2.94163 5.52083 0.140078 9.50893C-0.0466926 9.83631 -0.0466926 10.1637 0.140078 10.4911C0.202335 10.5804 0.303502 10.7366 0.44358 10.9598C0.583658 11.183 0.863813 11.5253 1.28405 11.9866C1.70428 12.4479 2.16342 12.9018 2.66148 13.3482C3.15953 13.7946 3.80545 14.256 4.59922 14.7321C5.393 15.2083 6.22568 15.5952 7.09728 15.8929L5.13619 19.0625L6.81712 20L9.10506 16.3839L10.2257 14.6875L11.393 12.8571L12.607 10.9375L14.8949 7.32143ZM10.5058 10.5804L9.52529 12.1875L8.2179 14.1964C5.6965 13.3631 3.70428 11.9643 2.24125 10C3.79767 8.09524 5.55642 6.8006 7.51751 6.11607C8.85603 5.52083 10.3502 5.22321 12 5.22321C12.8093 5.22321 13.4008 5.25298 13.7743 5.3125L13.5875 5.625L10.5058 10.5804Z" fill="#3E3E3E"/>
</svg>
