<svg width="24" height="14" viewBox="0 0 24 14" fill="none" xmlns="http://www.w3.org/2000/svg">
<path d="M12 0C6.9572 0 3.00389 2.16107 0.140078 6.48322C-0.0466926 6.82774 -0.0466926 7.17226 0.140078 7.51678C3.00389 11.8389 6.9572 14 12 14C17.0428 14 20.9961 11.8389 23.8599 7.51678C24.0467 7.17226 24.0467 6.82774 23.8599 6.48322C20.9961 2.16107 17.0428 0 12 0ZM12 1.97315C12.8405 1.97315 13.5486 2.26286 14.1245 2.84228C14.7004 3.4217 14.9883 4.13423 14.9883 4.97987C14.9883 5.85682 14.7004 6.57718 14.1245 7.14094C13.5486 7.7047 12.8405 7.98658 12 7.98658C11.1595 7.98658 10.4514 7.7047 9.87549 7.14094C9.29961 6.57718 9.01167 5.85682 9.01167 4.97987C9.01167 4.13423 9.29961 3.4217 9.87549 2.84228C10.4514 2.26286 11.1595 1.97315 12 1.97315ZM12 12.0268C10.6615 12.0268 9.40856 11.8389 8.24125 11.4631C7.07393 11.0872 6.09339 10.6018 5.29961 10.0067C4.50584 9.41163 3.88327 8.8792 3.43191 8.4094C2.98054 7.9396 2.58366 7.4698 2.24125 7C3.79767 4.99553 5.55642 3.58613 7.51751 2.77181C7.1751 3.64877 7.00389 4.38479 7.00389 4.97987C7.00389 6.38926 7.48638 7.57942 8.45136 8.55034C9.41634 9.52125 10.5992 10.0067 12 10.0067C13.4008 10.0067 14.5837 9.52125 15.5486 8.55034C16.5136 7.57942 16.9961 6.38926 16.9961 4.97987C16.9961 4.38479 16.8249 3.64877 16.4825 2.77181C18.6615 3.68009 20.4202 5.08949 21.7588 7C19.2685 10.3512 16.0156 12.0268 12 12.0268Z" fill="#3E3E3E"/>
</svg>
