<svg width="35" height="36" viewBox="0 0 35 36" fill="none" xmlns="http://www.w3.org/2000/svg">
<path d="M6.39079 0C2.85057 0 0 2.93202 0 6.57338V29.4267C0 33.068 2.85057 36 6.39079 36H18.433V21.9263H14.8149V16.8593H18.433V12.5303C18.433 9.12917 20.5708 6.00638 25.4953 6.00638C27.4892 6.00638 28.9636 6.20327 28.9636 6.20327L28.8477 10.935C28.8477 10.935 27.344 10.9204 25.7031 10.9204C23.9273 10.9204 23.6425 11.762 23.6425 13.1592V16.8593H28.9888L28.7558 21.9263H23.6425V36.0001H28.6092C32.1494 36.0001 35 33.0681 35 29.4267V6.57342C35 2.93206 32.1494 3.6e-05 28.6092 3.6e-05H6.39076L6.39079 0Z" fill="white"/>
</svg>
