<svg width="433" height="44" viewBox="0 0 433 44" fill="none" xmlns="http://www.w3.org/2000/svg">
<path d="M0 39.0698L7.19638 31.6408C9.70258 34.241 14.4644 36.0645 19.9064 36.0645C26.1003 36.0645 29.5732 34.1059 30.8621 31.5058C34.8004 23.5365 5.87167 29.0069 13.6767 13.2034C17.257 6.01074 26.4225 0 39.24 0C44.8968 0 50.0882 1.28319 53.0241 3.78204L46.1141 11.2448C43.0351 8.98235 39.2758 7.90176 35.2658 7.90176C29.0719 7.90176 25.5991 10.0967 24.2744 12.7644C20.4076 20.5986 49.3006 15.1957 41.6029 30.8304C38.0943 37.9555 28.8213 44.0338 15.9323 44.0338C8.77171 44 2.542 42.0077 0 39.0698Z" fill="white"/>
<path d="M51.449 24.5493L63.2281 0.708984H73.6826L62.0824 24.1779C58.0725 32.2485 60.1849 35.5916 66.4862 35.5916C72.8591 35.5916 78.1937 32.2485 82.2037 24.1779L93.8038 0.708984H104.115L92.3359 24.5493C86.142 37.0774 75.1147 43.9998 62.2973 43.9998C49.444 43.9998 45.2551 37.0774 51.449 24.5493Z" fill="white"/>
<path d="M122.123 43.2911L119.295 31.4384H118.794H109.7L103.828 43.2911H93.3735L114.426 0.743103H133.938C146.004 0.743103 150.622 6.65254 145.896 16.1752C142.746 22.5574 137.017 27.2512 129.964 29.6149L133.33 43.2911H122.123ZM129.391 8.74617H120.87L113.531 23.5704H122.052C128.425 23.5704 133.043 20.7677 135.335 16.1414C137.626 11.4814 135.764 8.74617 129.391 8.74617Z" fill="white"/>
<path d="M205.15 0.743103L164.585 43.2911H154.274L155.849 0.743103H167.127L165.838 31.1345L194.767 0.743103H205.15Z" fill="white"/>
<path d="M226.668 35.3893L222.766 43.2911H187.822L208.874 0.743103H242.959L239.056 8.64487H215.355L210.772 17.8974H231.717L227.922 25.5627H206.977L202.108 35.4231H226.668V35.3893Z" fill="white"/>
<path d="M259.75 28.1963L252.303 43.257H241.848L249.367 28.0612L245.428 0.708984H256.527L259.248 19.6192L280.659 0.708984H290.898L259.75 28.1963Z" fill="white"/>
<path d="M316.999 34.1736H296.055L287.569 43.2911H276.864L318.002 0.743103H328.313L327.454 43.2911H316.498L316.999 34.1736ZM317.393 26.6771L318.288 10.4008L303.072 26.6771H317.393Z" fill="url(#paint0_linear)"/>
<path d="M384.666 16.1748C379.976 25.6637 369.522 31.5394 357.456 31.5394H348.362L342.562 43.257H332.107L353.16 0.708984H372.672C384.738 0.742753 389.356 6.61843 384.666 16.1748ZM374.068 16.1748C376.396 11.4811 374.498 8.74582 368.125 8.74582H359.604L352.3 23.5025H360.821C367.23 23.5363 371.813 20.8011 374.068 16.1748Z" fill="url(#paint1_linear)"/>
<path d="M431.173 16.1748C426.483 25.6637 416.029 31.5394 403.963 31.5394H394.905L389.105 43.257H378.65L399.702 0.708984H419.215C431.281 0.742753 435.899 6.61843 431.173 16.1748ZM420.611 16.1748C422.939 11.4811 421.041 8.74582 414.668 8.74582H406.147L398.843 23.5025H407.364C413.773 23.5363 418.32 20.8011 420.611 16.1748Z" fill="url(#paint2_linear)"/>
<defs>
<linearGradient id="paint0_linear" x1="237.386" y1="32.6038" x2="476.043" y2="-0.730404" gradientUnits="userSpaceOnUse">
<stop stop-color="#00AA8B"/>
<stop offset="1" stop-color="#006CBF"/>
</linearGradient>
<linearGradient id="paint1_linear" x1="237.814" y1="35.6771" x2="476.472" y2="2.34262" gradientUnits="userSpaceOnUse">
<stop stop-color="#00AA8B"/>
<stop offset="1" stop-color="#006CBF"/>
</linearGradient>
<linearGradient id="paint2_linear" x1="238.607" y1="41.3597" x2="477.265" y2="8.02539" gradientUnits="userSpaceOnUse">
<stop stop-color="#00AA8B"/>
<stop offset="1" stop-color="#006CBF"/>
</linearGradient>
</defs>
</svg>
