<svg width="187" height="20" viewBox="0 0 187 20" fill="none" xmlns="http://www.w3.org/2000/svg">
<path d="M0 17.759L3.1079 14.3822C4.19026 15.5641 6.24673 16.3929 8.59699 16.3929C11.272 16.3929 12.7718 15.5027 13.3284 14.3208C15.0293 10.6984 2.5358 13.185 5.90656 6.00153C7.45279 2.73216 11.4111 0 16.9466 0C19.3896 0 21.6316 0.583269 22.8995 1.71911L19.9153 5.11128C18.5856 4.08289 16.962 3.59171 15.2303 3.59171C12.5553 3.59171 11.0555 4.58941 10.4834 5.80199C8.81346 9.36301 21.2915 6.90714 17.9671 14.0138C16.4518 17.2525 12.4471 20.0153 6.88068 20.0153C3.78824 20 1.09782 19.0944 0 17.759Z" fill="#353C64"/>
<path d="M22.2192 11.1588L27.3063 0.322266H31.8213L26.8115 10.99C25.0797 14.6584 25.992 16.178 28.7134 16.178C31.4656 16.178 33.7695 14.6584 35.5013 10.99L40.511 0.322266H44.9641L39.8771 11.1588C37.2021 16.8533 32.4397 19.9999 26.9043 19.9999C21.3533 19.9999 19.5443 16.8533 22.2192 11.1588Z" fill="#353C64"/>
<path d="M52.7414 19.6778L51.5198 14.2902H51.3034H47.376L44.8402 19.6778H40.3252L49.417 0.337769H57.8439C63.0546 0.337769 65.0493 3.02388 63.0083 7.35235C61.6476 10.2533 59.1736 12.3869 56.1276 13.4613L57.581 19.6778H52.7414ZM55.8802 3.97553H52.2002L49.0304 10.7138H52.7104C55.4627 10.7138 57.4573 9.43984 58.4469 7.337C59.4365 5.21881 58.6325 3.97553 55.8802 3.97553Z" fill="#353C64"/>
<path d="M88.5983 0.337769L71.0796 19.6778H66.6265L67.3068 0.337769H72.1774L71.6208 14.152L84.1142 0.337769H88.5983Z" fill="#353C64"/>
<path d="M97.8913 16.086L96.2059 19.6778H81.1147L90.2065 0.337769H104.927L103.241 3.92948H93.0052L91.026 8.13516H100.071L98.4324 11.6194H89.387L87.2842 16.1014H97.8913V16.086Z" fill="#353C64"/>
<path d="M112.178 12.8165L108.962 19.6623H104.447L107.694 12.7551L105.993 0.322266H110.787L111.962 8.91781L121.208 0.322266H125.63L112.178 12.8165Z" fill="#353C64"/>
<path d="M136.902 15.5335H127.857L124.193 19.6778H119.569L137.335 0.337769H141.789L141.417 19.6778H136.686L136.902 15.5335ZM137.073 12.1259L137.459 4.72764L130.888 12.1259H137.073Z" fill="url(#paint0_linear)"/>
<path d="M166.126 7.3522C164.1 11.6653 159.585 14.3361 154.375 14.3361H150.447L147.942 19.6623H143.427L152.519 0.322266H160.946C166.157 0.337615 168.151 3.00838 166.126 7.3522ZM161.549 7.3522C162.554 5.21866 161.735 3.97537 158.982 3.97537H155.302L152.148 10.683H155.828C158.596 10.6983 160.575 9.45504 161.549 7.3522Z" fill="url(#paint1_linear)"/>
<path d="M186.211 7.3522C184.186 11.6653 179.671 14.3361 174.46 14.3361H170.548L168.043 19.6623H163.528L172.62 0.322266H181.047C186.258 0.337615 188.252 3.00838 186.211 7.3522ZM181.65 7.3522C182.655 5.21866 181.836 3.97537 179.083 3.97537H175.403L172.249 10.683H175.929C178.697 10.6983 180.66 9.45504 181.65 7.3522Z" fill="url(#paint2_linear)"/>
<defs>
<linearGradient id="paint0_linear" x1="102.52" y1="14.8199" x2="205.781" y2="1.11644" gradientUnits="userSpaceOnUse">
<stop stop-color="#00AA8B"/>
<stop offset="1" stop-color="#006CBF"/>
</linearGradient>
<linearGradient id="paint1_linear" x1="102.705" y1="16.2168" x2="205.966" y2="2.51333" gradientUnits="userSpaceOnUse">
<stop stop-color="#00AA8B"/>
<stop offset="1" stop-color="#006CBF"/>
</linearGradient>
<linearGradient id="paint2_linear" x1="103.048" y1="18.7999" x2="206.309" y2="5.09639" gradientUnits="userSpaceOnUse">
<stop stop-color="#00AA8B"/>
<stop offset="1" stop-color="#006CBF"/>
</linearGradient>
</defs>
</svg>
