<svg width="16" height="16" viewBox="0 0 16 16" fill="none" xmlns="http://www.w3.org/2000/svg">
<path d="M9.53527 13.7974C9.53527 13.9003 9.52316 14.0033 9.49893 14.1032C9.39748 14.5196 9.09615 14.88 8.69336 15.0421C8.17852 15.248 7.56526 15.1011 7.1973 14.6877C7.0277 14.4985 6.92171 14.2637 6.88234 14.02C6.83237 13.711 6.88537 13.387 7.0489 13.1114C7.33661 12.6284 7.92413 12.3725 8.4738 12.4875C8.99621 12.5966 9.41868 13.0296 9.51559 13.5551C9.5277 13.6338 9.53527 13.7156 9.53527 13.7974Z" fill="#353C64"/>
<path d="M13 5.43871C13 5.86118 12.9455 6.28365 12.8379 6.69249C12.785 6.8954 12.7198 7.09679 12.6381 7.2891C12.5608 7.47081 12.467 7.64494 12.3731 7.81757C11.9915 8.51411 11.5357 9.17129 11.0178 9.77244C10.4909 10.3857 9.89731 10.9399 9.25376 11.429C9.10082 11.5456 8.94788 11.6683 8.77526 11.7546C8.60415 11.8394 8.41639 11.8878 8.2256 11.8924C7.88035 11.903 7.54268 11.7712 7.2898 11.5396C7.06266 11.3321 6.90518 11.0505 6.85067 10.7461C6.7901 10.4008 6.87187 10.0389 7.06721 9.74821C7.16866 9.59679 7.3004 9.47414 7.44728 9.36814C7.61233 9.25003 7.77738 9.13646 7.93032 9.00321C8.23165 8.73974 8.5239 8.46414 8.79798 8.1719C9.25527 7.68129 9.66866 7.15433 10.0109 6.57892C10.1305 6.37753 10.2486 6.17462 10.3576 5.96566C10.4833 5.72187 10.5636 5.44779 10.6287 5.1828C10.8164 4.41508 10.8013 3.60043 10.5878 2.83877C10.4 2.16948 10.0563 1.54864 9.59446 1.02926C9.48392 0.90509 9.36581 0.78698 9.24316 0.674927H9.24467C9.36733 0.703697 9.48544 0.744582 9.60052 0.796065C10.0003 0.976259 11.036 1.46384 11.4963 1.906C12.0733 2.46021 12.5124 3.15676 12.7607 3.9169C12.9197 4.40751 13 4.92387 13 5.43871Z" fill="#353C64"/>
<path d="M10.4488 4.78308C10.4488 4.86031 10.4428 4.93602 10.4307 5.01022C10.4246 5.04807 10.417 5.08593 10.4079 5.12227C10.4079 5.12378 10.4079 5.1253 10.4064 5.1253C10.3337 4.70283 10.1384 4.29398 9.86736 3.96994C9.67657 3.74129 9.44943 3.55655 9.18141 3.42633C9.13599 3.40361 9.09056 3.38393 9.04362 3.36424C8.79983 3.26279 8.54089 3.20071 8.27893 3.16739C8.14265 3.15074 8.00637 3.13862 7.86857 3.13257C7.78378 3.12802 7.69898 3.12651 7.61418 3.12651C7.59298 3.12651 7.57027 3.12651 7.54907 3.12651C7.52787 3.12651 7.50516 3.12651 7.48396 3.12802C7.46427 3.12802 7.44459 3.12954 7.4249 3.12954C7.40219 3.12954 7.38099 3.13105 7.35828 3.13257C7.33556 3.13408 7.31436 3.13408 7.29165 3.13559C6.9994 3.15225 6.70867 3.19162 6.42399 3.25068C6.41945 3.25219 6.41491 3.25219 6.41037 3.2537C5.80921 3.37939 5.22472 3.61561 4.7008 3.93662C4.19807 4.24401 3.73623 4.62863 3.35464 5.07987C3.34858 5.08593 3.34404 5.0935 3.33798 5.09956C3.33647 5.10107 3.33496 5.1041 3.33344 5.10561C3.3289 5.11016 3.32587 5.1147 3.32133 5.11924L3.3183 5.12227C3.29559 5.14953 3.27287 5.17678 3.25016 5.20404C3.24107 5.21615 3.23199 5.22675 3.2229 5.23886C3.22139 5.24038 3.22139 5.24189 3.21987 5.24189C3.21836 5.24341 3.21685 5.24644 3.21533 5.24795C3.24865 4.35001 3.53484 3.46418 4.03453 2.71615C4.51 2.00446 5.17324 1.42148 5.94095 1.04292C6.3498 0.84153 6.78741 0.697678 7.23562 0.617424C7.34616 0.597739 7.4567 0.581082 7.56724 0.568968C7.62175 0.562911 7.67626 0.558369 7.73078 0.553826C7.75349 0.552312 7.78983 0.543226 7.81255 0.547769C7.83526 0.552312 7.86706 0.579568 7.88674 0.591682C8.05937 0.697678 8.22593 0.81276 8.38493 0.936927C9.01485 1.42754 9.53423 2.05746 9.8931 2.77066C10.0884 3.15982 10.2368 3.57169 10.3337 3.99719C10.3761 4.18193 10.4095 4.37121 10.4337 4.562C10.4382 4.59986 10.4428 4.6362 10.4458 4.67406C10.4488 4.71343 10.4488 4.74825 10.4488 4.78308Z" fill="#353C64"/>
<path d="M5.55149 5.00267C5.41521 5.42665 5.40764 5.88092 5.51515 6.31248C5.61206 6.70164 5.5212 7.10442 5.26378 7.41333C4.84283 7.91756 4.05694 8.01296 3.5315 7.61472C3.24531 7.39667 3.07874 7.05899 3.08934 6.69861C3.0954 6.51993 3.14386 6.34428 3.22865 6.1868C3.31042 6.03689 3.41188 5.89304 3.51182 5.75524C3.90249 5.21163 4.37947 4.72859 4.93217 4.35003C5.49849 3.96239 6.13598 3.68831 6.80376 3.53234C6.8931 3.51115 6.98092 3.49297 7.07026 3.47632C6.78105 3.54143 6.50697 3.6656 6.27529 3.85185C6.05421 4.03053 5.88008 4.26221 5.74985 4.51357C5.6696 4.67105 5.60449 4.83459 5.55149 5.00267Z" fill="#353C64"/>
<path d="M6.86427 13.7974C6.86119 13.8004 6.85659 13.805 6.85352 13.8081L6.86427 13.7974Z" fill="#353C64"/>
<path d="M9.55086 13.8081C9.55086 13.8081 9.54625 13.8035 9.53857 13.7958L9.55086 13.8081Z" fill="#353C64"/>
<path d="M12.5912 7.39819C12.4822 7.64653 12.3535 7.88578 12.2051 8.11291C12.3429 7.87972 12.4716 7.64199 12.5912 7.39819Z" fill="#353C64"/>
<path d="M12.5805 7.41939C12.5775 7.42696 12.5729 7.43302 12.5699 7.44059C12.5639 7.45119 12.5593 7.46179 12.5533 7.47239C12.5457 7.48905 12.5366 7.5057 12.5275 7.52236L12.526 7.52387C12.5245 7.5269 12.5245 7.52842 12.523 7.53145C12.5215 7.53447 12.5199 7.5375 12.5184 7.54053C12.5124 7.55264 12.5063 7.56476 12.5003 7.57687C12.4261 7.72375 12.3458 7.8676 12.2625 8.01146C12.261 8.016 12.258 8.01903 12.2565 8.02357C12.2504 8.03417 12.2443 8.04477 12.2383 8.05537C12.2277 8.07354 12.2186 8.0902 12.208 8.10837C12.2095 8.10685 12.2095 8.10534 12.211 8.10382C12.2186 8.09171 12.2262 8.08111 12.2337 8.069C12.2519 8.04023 12.2701 8.01145 12.2883 7.98268C12.2973 7.96754 12.3064 7.9524 12.3155 7.93726C12.3231 7.92363 12.3322 7.90849 12.3397 7.89486C12.3488 7.87972 12.3564 7.86609 12.3655 7.85095C12.3731 7.83732 12.3821 7.82218 12.3897 7.80855C12.4064 7.77826 12.423 7.74798 12.4397 7.71769C12.4473 7.70255 12.4548 7.68741 12.4639 7.67227C12.4791 7.64198 12.4942 7.6117 12.5093 7.58141C12.5169 7.56627 12.5245 7.55113 12.5305 7.53599C12.5381 7.52085 12.5457 7.50419 12.5533 7.48905C12.5593 7.47542 12.5669 7.46028 12.5729 7.44665C12.5805 7.42999 12.5881 7.41485 12.5941 7.39819C12.5881 7.40576 12.5851 7.41334 12.5805 7.41939Z" fill="#353C64"/>
<path d="M12.3006 7.94629C12.2931 7.96143 12.284 7.97809 12.2749 7.99323C12.284 7.97657 12.2931 7.96143 12.3006 7.94629Z" fill="#353C64"/>
<path d="M3.25309 5.20251C3.24098 5.21614 3.23038 5.23128 3.21826 5.24643C3.22583 5.23128 3.24098 5.21463 3.25309 5.20251Z" fill="#353C64"/>
<path d="M3.36047 5.07385C3.34381 5.09202 3.32715 5.11171 3.31201 5.13139C3.32715 5.11322 3.3423 5.09202 3.36047 5.07385Z" fill="#353C64"/>
<path d="M5.06979 3.73218C5.05465 3.73975 5.04102 3.74732 5.02588 3.75489C5.03951 3.74581 5.05465 3.73823 5.06979 3.73218Z" fill="#353C64"/>
<path d="M5.3923 3.58081C5.33476 3.60504 5.27722 3.63078 5.22119 3.65804C5.27722 3.63078 5.33476 3.60655 5.3923 3.58081Z" fill="#353C64"/>
<path d="M3.25309 5.20251C3.24098 5.21614 3.23038 5.23128 3.21826 5.24643C3.22583 5.23128 3.24098 5.21463 3.25309 5.20251Z" fill="#353C64"/>
<path d="M3.36047 5.07385C3.34381 5.09202 3.32715 5.11171 3.31201 5.13139C3.32715 5.11322 3.3423 5.09202 3.36047 5.07385Z" fill="#353C64"/>
<path d="M5.06979 3.73218C5.05465 3.73975 5.04102 3.74732 5.02588 3.75489C5.03951 3.74581 5.05465 3.73823 5.06979 3.73218Z" fill="#353C64"/>
<path d="M5.3923 3.58081C5.33476 3.60504 5.27722 3.63078 5.22119 3.65804C5.27722 3.63078 5.33476 3.60655 5.3923 3.58081Z" fill="#353C64"/>
<path d="M3.25309 5.20251C3.24098 5.21614 3.23038 5.23128 3.21826 5.24643C3.22583 5.23128 3.24098 5.21463 3.25309 5.20251Z" fill="#353C64"/>
<path d="M3.36047 5.07385C3.34381 5.09202 3.32715 5.11171 3.31201 5.13139C3.32715 5.11322 3.3423 5.09202 3.36047 5.07385Z" fill="#353C64"/>
<path d="M5.06979 3.73218C5.05465 3.73975 5.04102 3.74732 5.02588 3.75489C5.03951 3.74581 5.05465 3.73823 5.06979 3.73218Z" fill="#353C64"/>
<path d="M5.21973 3.65804C5.27727 3.63078 5.33329 3.60504 5.39083 3.58081L5.21973 3.65804Z" fill="#353C64"/>
<path d="M6.64031 3.2113C6.56763 3.22342 6.49646 3.23705 6.42529 3.25219C6.49646 3.23705 6.56915 3.2219 6.64031 3.2113Z" fill="#353C64"/>
</svg>
