<svg width="16" height="16" viewBox="0 0 16 16" fill="none" xmlns="http://www.w3.org/2000/svg">
<g clip-path="url(#clip0)">
<path d="M7.99874 9V2C6.47579 2.00027 4.99447 2.49722 3.77947 3.41546C2.56447 4.3337 1.68208 5.62313 1.26614 7.08818C0.850191 8.55323 0.923387 10.114 1.47462 11.5337C2.02586 12.9534 3.02505 14.1545 4.32066 14.955C5.61627 15.7555 7.13759 16.1117 8.65388 15.9694C10.1702 15.8271 11.5987 15.1942 12.7228 14.1667C13.8469 13.1392 14.6052 11.7731 14.8828 10.2757C15.1603 8.77823 14.9419 7.23112 14.2607 5.869L7.99874 9ZM15.2607 3.869C14.6793 2.70613 13.7855 1.72819 12.6794 1.04482C11.5734 0.361442 10.2989 -0.000348972 8.99874 2.52581e-07V7L15.2607 3.869Z" fill="#353C64"/>
</g>
<defs>
<clipPath id="clip0">
<rect width="16" height="16" fill="white"/>
</clipPath>
</defs>
</svg>
