<svg width="5" height="16" viewBox="0 0 5 16" fill="none" xmlns="http://www.w3.org/2000/svg">
<path d="M2.32718 3.87762C3.32918 3.87762 4.14899 3.00516 4.14899 1.93881C4.14899 0.872464 3.32918 0 2.32718 0C1.32519 0 0.505371 0.872464 0.505371 1.93881C0.505371 3.00516 1.32519 3.87762 2.32718 3.87762ZM2.32718 5.81643C1.32519 5.81643 0.505371 6.68889 0.505371 7.75524C0.505371 8.82158 1.32519 9.69405 2.32718 9.69405C3.32918 9.69405 4.14899 8.82158 4.14899 7.75524C4.14899 6.68889 3.32918 5.81643 2.32718 5.81643ZM2.32718 11.6329C1.32519 11.6329 0.505371 12.5053 0.505371 13.5717C0.505371 14.638 1.32519 15.5105 2.32718 15.5105C3.32918 15.5105 4.14899 14.638 4.14899 13.5717C4.14899 12.5053 3.32918 11.6329 2.32718 11.6329Z" fill="#353C64"/>
</svg>
