<svg width="24" height="23" viewBox="0 0 24 23" fill="none" xmlns="http://www.w3.org/2000/svg">
<path d="M23.04 20.815H0.96C0.429 20.815 0 21.2261 0 21.735V22.77C0 22.8965 0.108 23 0.24 23H23.76C23.892 23 24 22.8965 24 22.77V21.735C24 21.2261 23.571 20.815 23.04 20.815ZM4.371 18.4C4.431 18.4 4.491 18.3943 4.551 18.3856L9.597 17.5375C9.657 17.526 9.714 17.5001 9.756 17.457L22.473 5.26987C22.5008 5.24328 22.5229 5.21168 22.5379 5.1769C22.553 5.14212 22.5607 5.10484 22.5607 5.06719C22.5607 5.02953 22.553 4.99225 22.5379 4.95747C22.5229 4.92269 22.5008 4.8911 22.473 4.8645L17.487 0.083375C17.43 0.02875 17.355 0 17.274 0C17.193 0 17.118 0.02875 17.061 0.083375L4.344 12.2705C4.299 12.3136 4.272 12.3654 4.26 12.4229L3.375 17.2586C3.34582 17.4126 3.35624 17.5712 3.40538 17.7204C3.45452 17.8697 3.54088 18.0053 3.657 18.1154C3.855 18.2994 4.104 18.4 4.371 18.4Z" fill="white"/>
</svg>
